<svg xmlns="http://www.w3.org/2000/svg" width="27" height="28" viewBox="0 0 27 28">
    <g fill="none" fill-rule="evenodd">
        <g fill="#15AD4C" fill-rule="nonzero">
            <g>
                <g>
                    <g>
                        <path d="M13 17.5c6.888 0 10.83 1.821 12.343 4.935.714 1.47.79 3.01.496 4.426-.06.286-.12.5-.166.628l-.18.511H.507l-.18-.51C.282 27.36.22 27.146.16 26.86c-.294-1.416-.218-2.957.496-4.426C2.17 19.321 6.11 17.5 13 17.5zM13 0c4.308 0 7.8 3.526 7.8 7.875S17.308 15.75 13 15.75s-7.8-3.526-7.8-7.875C5.2 3.525 8.692 0 13 0z" transform="translate(-624 -1539) translate(443 660) translate(.167 819) translate(181 60)"/>
                    </g>
                </g>
            </g>
        </g>
    </g>
</svg>
